<svg xmlns="http://www.w3.org/2000/svg" width="51" height="47" viewBox="0 0 51 47">
  <g fill="#FFF" fill-rule="evenodd" transform="rotate(-38 22.203 16.928)">
    <path d="M1.49239163 36.024684L2.08895031 35.2794854C2.13947274 35.2253647 2.18805506 35.2253647 2.23857749 35.2253647 2.28909992 35.2253647 2.33768225 35.2794854 2.33768225 35.3315278L2.53589175 36.2911629 3.38118237 36.6637729C3.4317048 36.6637729 3.4317048 36.7178935 3.48028713 36.769936 3.48028713 36.8240566 3.48028713 36.876099 3.42976469 36.876099L2.63302655 37.3548721 2.48728456 38.4227379C2.48728456 38.4768586 2.43676213 38.528901 2.3881798 38.528901L2.33765737 38.528901C2.28713494 38.528901 2.28713494 38.528901 2.23855262 38.4747803L1.59145161 37.8357341.695618662 38.0480603C.645096231 38.0480603.596513909 38.0480603.545991477 37.9939396.495469046 37.9398189.495469046 37.8877765.545991477 37.8336558L.9443506 36.9281628.446886724 36.0746801.446886724 35.9143963C.446886724 35.8602756.497409155 35.8602756.545991477 35.8602756L1.49239163 36.024684zM39.9468467 29.6816496C39.9468467 29.7357703 39.8963243 29.7878127 39.847742 29.7878127 39.7972195 29.7878127 39.7486372 29.7878127 39.7486372 29.733692L39.2511733 28.8802093 38.3048478 28.7761299C38.2543254 28.7761299 38.205743 28.7220092 38.205743 28.6699668L38.205743 28.509683 38.8023017 27.7644844 38.5535698 26.8048493C38.5535698 26.7507286 38.5535698 26.6986862 38.6040922 26.6445655 38.6546147 26.5904448 38.703197 26.5904448 38.7537194 26.6445655L39.59901 27.0171755 40.3957482 26.4842817C40.4462706 26.430161 40.4948529 26.430161 40.5453754 26.4842817 40.5958978 26.4842817 40.5958978 26.5384024 40.5958978 26.5904448L40.5453754 27.6020903 41.2915712 28.2411365C41.3420936 28.2952572 41.3420936 28.3472996 41.3420936 28.3472996 41.3420936 28.4014203 41.2915712 28.4534627 41.2429888 28.4534627L40.2947232 28.7219932 39.9468467 29.6816496zM6.76650364 6.55512615L5.82211822 6.66128925 5.37517678 7.56678233C5.37517678 7.62090302 5.32465434 7.62090302 5.27607202 7.62090302 5.22554959 7.62090302 5.17696727 7.56678233 5.17696727 7.56678233L4.77860815 6.66128925 3.8827752 6.50100546C3.83225277 6.50100546 3.78367044 6.44688477 3.78367044 6.39484237 3.78367044 6.34072168 3.78367044 6.28867927 3.83419288 6.23455858L4.52984636 5.54137038 4.38021918 4.52972486C4.38021918 4.47560417 4.38021918 4.42356177 4.43074161 4.42356177 4.48126404 4.36944108 4.52984636 4.36944108 4.58036879 4.42356177L5.37710694 4.90233484 6.22239755 4.47560417 6.37202474 4.47560417C6.42254717 4.52972486 6.42254717 4.58176727 6.42254717 4.58176727L6.22433766 5.54140235 6.87143867 6.23459056C6.9219611 6.28871125 6.9219611 6.34075365 6.9219611 6.39487434 6.8656084 6.55515813 6.81508597 6.55515813 6.76650364 6.55515813L6.76650364 6.55512615zM36.314863 9.00483877L35.3704775 9.11100187 34.9235361 10.0164949C34.9235361 10.0706156 34.8730137 10.0706156 34.8244313 10.0706156 34.7739089 10.0706156 34.7253266 10.0164949 34.7253266 10.0164949L34.3269675 9.11100187 33.4311345 8.95071808C33.3806121 8.95071808 33.3320298 8.89659739 33.3320298 8.84455499 33.3320298 8.7904343 33.3320298 8.73839189 33.3825522 8.6842712L34.0782057 7.991083 33.9285785 6.97943748C33.9285785 6.92531679 33.9285785 6.87327439 33.9791009 6.87327439 34.0296234 6.8191537 34.0782057 6.8191537 34.1287281 6.87327439L34.9254662 7.35204746 35.7707569 6.92531679 35.9203841 6.92531679C35.9709065 6.97943748 35.9709065 7.03147989 35.9709065 7.03147989L35.772697 7.99111497 36.419798 8.68430318C36.4703204 8.73842387 36.4703204 8.79046627 36.4703204 8.84458696 36.4139677 8.95282834 36.3653854 9.00487075 36.314863 9.00487075L36.314863 9.00483877zM35.5686671 40.1274331C35.6191896 40.0733124 35.6191896 40.0733124 35.6677719 40.0733124L36.6121573 40.1794755 37.208716 39.4342769C37.2592384 39.3801562 37.3078208 39.3801562 37.3583432 39.3801562 37.4088656 39.3801562 37.4574479 39.4342769 37.4574479 39.4863193L37.6556574 40.4459544 38.5009481 40.8185643C38.5514705 40.8185643 38.5514705 40.872685 38.6000528 40.9247274 38.6000528 40.9788481 38.6000528 41.0308905 38.5495304 41.0308905L37.70812 41.5658626 37.6090152 42.5775081C37.6090152 42.6316288 37.5584928 42.6836712 37.5099105 42.6836712L37.459388 42.6836712C37.4088656 42.6836712 37.4088656 42.6836712 37.3602833 42.6295505L36.6646298 41.9363623 35.8173991 42.2048928C35.7668767 42.2048928 35.7182943 42.2048928 35.6677719 42.1507721 35.6172495 42.0966514 35.6172495 42.044609 35.6677719 41.9904883L36.066131 41.0849952 35.5686671 40.2315126 35.5686671 40.1274331zM20.7944875 24.833915C21.0432194 24.727752 21.3424937 24.833915 21.4415885 25.1003619L28.2080921 42.5798102C28.3071969 42.8462571 28.2080921 43.1668459 27.9593602 43.2729984 27.9088378 43.3271191 27.809733 43.3271191 27.7611507 43.3271191 27.5629412 43.3271191 27.3627916 43.220956 27.3142092 43.0065515L20.4954719 25.5249717C20.3963671 25.2585248 20.5459943 24.9400142 20.7947263 24.8338618L20.7944875 24.833915zM17.3122404 15.8264118C17.2617179 15.8805325 17.1626132 15.8805325 17.1140308 15.8805325 16.9158213 15.8805325 16.7156717 15.7743694 16.6670894 15.5599649L11.2437382 1.54432612C11.1446335 1.27787924 11.2437382.957290352 11.4924702.851137915 11.7412021.74497482 12.0404764.851137915 12.1395712 1.1175848L17.5609325 15.0788684C17.6600372 15.399436 17.5609325 15.7199929 17.3122006 15.8261454L17.3122404 15.8264118zM28.9519001 33.3058601C28.8022729 33.3058601 28.7031682 33.2517394 28.6040634 33.1455763L23.3806927 26.9112522C23.1824832 26.698926 23.2310656 26.3783584 23.4312152 26.1660535 23.6294247 25.9537273 23.928679 26.0057697 24.1268687 26.2201742L29.3502394 32.4006761C29.5484489 32.6130022 29.4998665 32.9335698 29.2997169 33.1458747 29.2006122 33.2520378 29.1015074 33.3061585 28.9518802 33.3061585L28.9519001 33.3058601zM30.2463011 34.0508455C30.4445106 33.8385193 30.743765 33.8385193 30.9419546 34.0508455L32.6830782 35.9701157C32.8812877 36.1824419 32.8812877 36.5030095 32.6830782 36.7153143 32.5839734 36.8214774 32.4848687 36.8755981 32.3352415 36.8755981 32.1856143 36.8755981 32.0865096 36.8214774 31.9874048 36.7153143L30.2462812 34.7960442C30.0461316 34.583718 30.0461316 34.265234 30.2462812 34.0508455L30.2463011 34.0508455zM17.3122404 18.7573275C17.2131356 18.8634906 17.1140308 18.9176113 16.9644037 18.9176113 16.8147765 18.9176113 16.7156717 18.8634906 16.616567 18.7573275L9.75106802 10.6035201C9.55285851 10.3911939 9.60144083 10.0706263 9.80159045 9.85832142 9.99979995 9.64599523 10.2990543 9.69803763 10.4972439 9.91244211L17.3627429 18.0662495C17.5609524 18.224455 17.5609524 18.5450226 17.3122205 18.7573595L17.3122404 18.7573275zM20.8934828 22.2754921C21.04311 22.0090452 21.3404242 21.9028821 21.5891363 22.0631659L37.3099897 31.0680047C37.5587216 31.2282885 37.6578264 31.5467778 37.5081992 31.8132033 37.4090944 31.9734871 37.2594673 32.0796502 37.0612578 32.0796502 36.962153 32.0796502 36.9116306 32.0796502 36.8125258 32.0255295L21.0916724 23.0206907C20.8429405 22.860407 20.7943581 22.5419177 20.8934629 22.2754921L20.8934828 22.2754921zM14.3757111 18.0640327C14.2766063 18.2243165 14.1269792 18.3304796 13.9287696 18.3304796 13.8296649 18.3304796 13.7791425 18.3304796 13.6800377 18.2763589L1.44143143 11.2965164C1.19269949 11.1362326 1.09359474 10.8177433 1.24322192 10.5513178 1.39284911 10.2848922 1.69016337 10.1787078 1.93887541 10.3389916L14.2257357 17.3726563C14.4258853 17.4788194 14.4764127 17.8514294 14.3753629 18.0637663L14.3757111 18.0640327zM36.1651263 24.673514L26.1651075 23.0748327C25.9163756 23.0207121 25.718166 22.7542652 25.7667484 22.487797 25.8172708 22.2213501 26.0660027 22.0090239 26.3147546 22.0610663L36.3147734 23.6597476C36.5635054 23.7138683 36.7617149 23.9803152 36.7131325 24.2467834 36.6626101 24.5132302 36.4644006 24.7255564 36.2156687 24.7255564 36.2156687 24.673514 36.2156687 24.673514 36.1651462 24.673514L36.1651263 24.673514zM18.2081728 21.6365525L18.1576504 21.6365525 1.89107908 19.0782361C1.64234714 19.0241154 1.44413763 18.7576685 1.49271995 18.4912003 1.54324239 18.2247535 1.79197432 18.0124273 2.04072616 18.0644697L18.3072974 20.622786C18.5560294 20.6769067 18.7542389 20.9433536 18.7056566 21.2098218 18.6551341 21.422148 18.4569246 21.6365525 18.2081927 21.6365525L18.2081728 21.6365525zM39.3986415 17.69154L25.3706577 20.7286081 25.2715529 20.7286081C25.022821 20.7286081 24.8246115 20.5683243 24.7740891 20.3018774 24.7235666 20.0354305 24.8731938 19.7148417 25.1724482 19.6628312L39.200432 16.6777735C39.449164 16.6236528 39.7484382 16.7839366 39.7969907 17.1045042 39.8475131 17.3730347 39.6473635 17.6394762 39.3986316 17.69154L39.3986415 17.69154zM13.6802566 22.4875838C13.730779 22.7540307 13.5811518 23.0746196 13.2818975 23.12663L1.14477382 25.7369568 1.04566907 25.7369568C.79693713 25.7369568.598727623 25.576673.548205191 25.3102261.49768276 25.0437793.647309945 24.7231904.946564314 24.67118L13.083688 22.0608532C13.3810022 22.0088107 13.6297541 22.2211369 13.6802466 22.4875838L13.6802566 22.4875838zM9.05334508 28.8306183C8.95424033 28.8847389 8.9037179 28.8847389 8.80461314 28.8847389 8.65498596 28.8847389 8.45677645 28.7785758 8.3576717 28.6182921 8.20804451 28.3518452 8.30714927 28.0312563 8.50729888 27.8730934L15.9185157 23.127035C16.1672476 22.9667512 16.4665219 23.0729143 16.6141692 23.2873188 16.7637964 23.5537657 16.6646916 23.8743546 16.464542 24.0325174L9.05334508 28.8306183zM21.7894152 20.0378712C21.6397881 19.7714243 21.7388928 19.4508354 21.9390424 19.2926726L30.6954016 13.6429329C30.9441335 13.4826491 31.2434078 13.5888122 31.3910551 13.8032167 31.5406822 14.0696636 31.4415775 14.3902525 31.2414279 14.5484153L22.4368147 20.1960234C22.33771 20.2501441 22.2871875 20.2501441 22.1880828 20.2501441 22.0384556 20.3042648 21.8888284 20.1960234 21.7897237 20.0378179L21.7894152 20.0378712zM6.02030783 30.6957464C5.87068064 30.6957464 5.67247114 30.5895833 5.57336638 30.4292995 5.4237392 30.1628527 5.52284395 29.8422638 5.72299357 29.6841009L6.41864705 29.2573702C6.66737899 29.0970865 6.96665326 29.2032495 7.11430054 29.417654 7.26392772 29.6841009 7.16482297 30.0046898 6.96467335 30.1628527L6.26901987 30.5895833C6.16797501 30.6957464 6.06887025 30.6957464 6.02028793 30.6957464L6.02030783 30.6957464zM33.8782849 12.2565565C34.0279121 12.5230034 33.9288073 12.8435923 33.7286577 13.0017551L33.0330042 13.4284858C32.9338995 13.4826065 32.883377 13.4826065 32.7842723 13.4826065 32.6346451 13.4826065 32.4364356 13.3764434 32.3373308 13.2161596 32.1877037 12.9497127 32.2868084 12.6291238 32.486958 12.470961L33.1826115 12.0442303C33.4293984 11.8839465 33.7286776 11.9901096 33.878265 12.2565565L33.8782849 12.2565565zM6.86549895 38.5287518C6.7663942 38.5287518 6.66728945 38.4746311 6.56624459 38.4225887 6.36803508 38.2623049 6.31751265 37.889695 6.51572215 37.6773901L14.972608 26.592667C15.1222352 26.3803408 15.4700719 26.3262201 15.6682615 26.5385463 15.866471 26.6988301 15.9169935 27.07144 15.718784 27.2837449L7.26388793 38.368468C7.16284306 38.4746311 7.01515599 38.5287518 6.8655288 38.5287518L6.86549895 38.5287518zM23.5787928 16.7317983C23.479688 16.8379614 23.3300609 16.9441245 23.1804337 16.9441245 23.0813289 16.9441245 22.9822242 16.8900038 22.8811793 16.8379614 22.6829698 16.6776776 22.6324474 16.3050676 22.8306569 16.0927628L31.2875428 5.00803964C31.4857523 4.79571345 31.7850066 4.74159276 31.9831963 4.95391895 32.1814058 5.11420274 32.2319282 5.48681272 32.0337187 5.69911759L23.5787928 16.7317983zM13.6802566 39.4884935C13.6297342 39.4884935 13.5811518 39.4884935 13.5306294 39.4343728 13.2818975 39.3282097 13.1322703 39.0076421 13.231375 38.7411846L18.3557504 23.2872655C18.4548552 23.0208186 18.7541096 22.8605348 19.0028514 22.9666979 19.2515834 23.072861 19.4012106 23.3934286 19.3021058 23.6598861L14.1777304 39.1138052C14.0786257 39.3282097 13.9289985 39.4884935 13.6802665 39.4884935L13.6802566 39.4884935zM25.5686483 4.79604385L20.4462628 20.2499629C20.3957403 20.4622891 20.1975308 20.6225729 19.9993213 20.6225729 19.9487989 20.6225729 19.9002166 20.6225729 19.8496941 20.5684522 19.6009622 20.4622891 19.451335 20.1417215 19.5504398 19.875264L24.6748152 4.42134493C24.7739199 4.15489805 25.0731743 3.99461426 25.3219162 4.10077736 25.5201257 4.20902407 25.6697529 4.52959164 25.568703 4.79604385L25.5686483 4.79604385zM26.1675948 2.71882397C26.1170724 2.93115016 25.9188629 3.09143394 25.7206534 3.09143394 25.6701309 3.09143394 25.6215486 3.09143394 25.5710262 3.03731325 25.3222942 2.93115016 25.1726671 2.61058259 25.2717718 2.34412505L25.8683305.585149323C25.9674352.318702443 26.2666896.158418657 26.5154315.264581752 26.7641634.370744847 26.9137906.691312418 26.8146859.957769957L26.1675948 2.71882397zM13.3807833 41.6717592L12.7842247 43.4307339C12.7337022 43.6430601 12.5354927 43.8033438 12.3372832 43.8033438 12.2867608 43.8033438 12.2381785 43.8033438 12.187656 43.7492232 11.9389241 43.6430601 11.7892969 43.3224925 11.8884017 43.056036L12.4849603 41.2970603C12.5840651 41.0306134 12.8833195 40.8703296 13.1320614 40.9764927 13.332211 41.1388601 13.4818382 41.405307 13.3807933 41.6717592L13.3807833 41.6717592zM19.5000865 30.3749444C19.7993408 30.3749444 19.9975504 30.5872706 19.9975504 30.9078381L20.0480728 42.8435926C20.0480728 43.1641602 19.8498633 43.3764869 19.5506089 43.3764869 19.2513545 43.3764869 19.053145 43.1641602 19.053145 42.8435926L19.0026226 30.9078381C19.0026226 30.6413913 19.2513545 30.3749444 19.5000865 30.3749444zM19.1523592 17.2130014C18.8531049 17.2130014 18.6548954 17.0006752 18.6548954 16.6801076L18.6043729 2.2376209C18.6043729 1.91705333 18.8025824 1.70472714 19.1018368 1.70472714 19.4010912 1.70472714 19.5993007 1.91705333 19.5993007 2.2376209L19.6498231 16.6801076C19.6498231 16.9985969 19.4010912 17.2130014 19.1523592 17.2130014z"/>
  </g>
</svg>
