<svg xmlns="http://www.w3.org/2000/svg" width="42" height="42" viewBox="0 0 42 42">
  <g fill="#FFF" fill-rule="evenodd" transform="translate(0 .241)">
    <path d="M1.49239163 33.629553L2.08895031 32.9338995C2.13947274 32.883377 2.18805506 32.883377 2.23857749 32.883377 2.28909992 32.883377 2.33768225 32.9338995 2.33768225 32.9824818L2.53589175 33.8783147 3.38118237 34.2261514C3.4317048 34.2261514 3.4317048 34.2766739 3.48028713 34.3252562 3.48028713 34.3757786 3.48028713 34.4243609 3.42976469 34.4243609L2.63302655 34.8713024 2.48728456 35.8681702C2.48728456 35.9186927 2.43676213 35.967275 2.3881798 35.967275L2.33765737 35.967275C2.28713494 35.967275 2.28713494 35.967275 2.23855262 35.9167526L1.59145161 35.3201939.695618662 35.5184034C.645096231 35.5184034.596513909 35.5184034.545991477 35.467881.495469046 35.4173585.495469046 35.3687762.545991477 35.3182538L.9443506 34.4729632.446886724 33.676225.446886724 33.5265978C.446886724 33.4760754.497409155 33.4760754.545991477 33.4760754L1.49239163 33.629553zM39.9468467 27.7082404C39.9468467 27.7587629 39.8963243 27.8073452 39.847742 27.8073452 39.7972195 27.8073452 39.7486372 27.8073452 39.7486372 27.7568228L39.2511733 26.9600846 38.3048478 26.8629249C38.2543254 26.8629249 38.205743 26.8124025 38.205743 26.7638202L38.205743 26.614193 38.8023017 25.9185395 38.5535698 25.0227066C38.5535698 24.9721841 38.5535698 24.9236018 38.6040922 24.8730794 38.6546147 24.822557 38.703197 24.822557 38.7537194 24.8730794L39.59901 25.2209161 40.3957482 24.7234522C40.4462706 24.6729298 40.4948529 24.6729298 40.5453754 24.7234522 40.5958978 24.7234522 40.5958978 24.7739746 40.5958978 24.822557L40.5453754 25.7669424 41.2915712 26.3635011C41.3420936 26.4140235 41.3420936 26.4626058 41.3420936 26.4626058 41.3420936 26.5131282 41.2915712 26.5617106 41.2429888 26.5617106L40.2947232 26.8123876 39.9468467 27.7082404zM6.76650364 6.11930314L5.82211822 6.21840789 5.37517678 7.06369851C5.37517678 7.11422094 5.32465434 7.11422094 5.27607202 7.11422094 5.22554959 7.11422094 5.17696727 7.06369851 5.17696727 7.06369851L4.77860815 6.21840789 3.8827752 6.06878071C3.83225277 6.06878071 3.78367044 6.01825828 3.78367044 5.96967596 3.78367044 5.91915352 3.78367044 5.8705712 3.83419288 5.82004877L4.52984636 5.17294776 4.38021918 4.22856234C4.38021918 4.17803991 4.38021918 4.12945759 4.43074161 4.12945759 4.48126404 4.07893515 4.52984636 4.07893515 4.58036879 4.12945759L5.37710694 4.57639903 6.22239755 4.17803991 6.37202474 4.17803991C6.42254717 4.22856234 6.42254717 4.27714466 6.42254717 4.27714466L6.22433766 5.17297761 6.87143867 5.82007862C6.9219611 5.87060105 6.9219611 5.91918337 6.9219611 5.9697058 6.8656084 6.11933299 6.81508597 6.11933299 6.76650364 6.11933299L6.76650364 6.11930314zM36.314863 8.40614458L35.3704775 8.50524933 34.9235361 9.35053995C34.9235361 9.40106238 34.8730137 9.40106238 34.8244313 9.40106238 34.7739089 9.40106238 34.7253266 9.35053995 34.7253266 9.35053995L34.3269675 8.50524933 33.4311345 8.35562215C33.3806121 8.35562215 33.3320298 8.30509972 33.3320298 8.25651739 33.3320298 8.20599496 33.3320298 8.15741264 33.3825522 8.10689021L34.0782057 7.4597892 33.9285785 6.51540378C33.9285785 6.46488135 33.9285785 6.41629902 33.9791009 6.41629902 34.0296234 6.36577659 34.0782057 6.36577659 34.1287281 6.41629902L34.9254662 6.86324047 35.7707569 6.46488135 35.9203841 6.46488135C35.9709065 6.51540378 35.9709065 6.5639861 35.9709065 6.5639861L35.772697 7.45981905 36.419798 8.10692006C36.4703204 8.15744249 36.4703204 8.20602481 36.4703204 8.25654724 36.4139677 8.3575921 36.3653854 8.40617443 36.314863 8.40617443L36.314863 8.40614458zM35.5686671 37.4595273C35.6191896 37.4090049 35.6191896 37.4090049 35.6677719 37.4090049L36.6121573 37.5081097 37.208716 36.8124562C37.2592384 36.7619337 37.3078208 36.7619337 37.3583432 36.7619337 37.4088656 36.7619337 37.4574479 36.8124562 37.4574479 36.8610385L37.6556574 37.7568714 38.5009481 38.1047081C38.5514705 38.1047081 38.5514705 38.1552306 38.6000528 38.2038129 38.6000528 38.2543353 38.6000528 38.3029176 38.5495304 38.3029176L37.70812 38.8023216 37.6090152 39.7467071C37.6090152 39.7972295 37.5584928 39.8458118 37.5099105 39.8458118L37.459388 39.8458118C37.4088656 39.8458118 37.4088656 39.8458118 37.3602833 39.7952894L36.6646298 39.1481884 35.8173991 39.3988654C35.7668767 39.3988654 35.7182943 39.3988654 35.6677719 39.348343 35.6172495 39.2978205 35.6172495 39.2492382 35.6677719 39.1987158L36.066131 38.3534252 35.5686671 37.556687 35.5686671 37.4595273zM20.7944875 23.1828116C21.0432194 23.0837068 21.3424937 23.1828116 21.4415885 23.4315435L28.2080921 39.7488561C28.3071969 39.997588 28.2080921 40.2968623 27.9593602 40.3959571 27.9088378 40.4464795 27.809733 40.4464795 27.7611507 40.4464795 27.5629412 40.4464795 27.3627916 40.3473748 27.3142092 40.1472252L20.4954719 23.8279227C20.3963671 23.5791908 20.5459943 23.2818566 20.7947263 23.1827618L20.7944875 23.1828116zM17.3122404 14.7741797C17.2617179 14.8247021 17.1626132 14.8247021 17.1140308 14.8247021 16.9158213 14.8247021 16.7156717 14.7255973 16.6670894 14.5254477L11.2437382 1.44165031C11.1446335 1.19291837 11.2437382.893644107 11.4924702.794549303 11.7412021.69544455 12.0404764.794549303 12.1395712 1.04328124L17.5609325 14.0763373C17.6600372 14.3755917 17.5609325 14.6748361 17.3122006 14.7739309L17.3122404 14.7741797zM28.9519001 31.0914923C28.8022729 31.0914923 28.7031682 31.0409698 28.6040634 30.9418651L23.3806927 25.1220352C23.1824832 24.9238257 23.2310656 24.6245713 23.4312152 24.4263817 23.6294247 24.2281722 23.928679 24.2767545 24.1268687 24.4769041L29.3502394 30.2464902C29.5484489 30.4446997 29.4998665 30.743954 29.2997169 30.9421437 29.2006122 31.0412484 29.1015074 31.0917708 28.9518802 31.0917708L28.9519001 31.0914923zM30.2463011 31.7869468C30.4445106 31.5887373 30.743765 31.5887373 30.9419546 31.7869468L32.6830782 33.5786127C32.8812877 33.7768222 32.8812877 34.0760765 32.6830782 34.2742661 32.5839734 34.3733709 32.4848687 34.4238933 32.3352415 34.4238933 32.1856143 34.4238933 32.0865096 34.3733709 31.9874048 34.2742661L30.2462812 32.4826002C30.0461316 32.2843907 30.0461316 31.9870814 30.2462812 31.7869468L30.2463011 31.7869468zM17.3122404 17.510231C17.2131356 17.6093357 17.1140308 17.6598582 16.9644037 17.6598582 16.8147765 17.6598582 16.7156717 17.6093357 16.616567 17.510231L9.75106802 9.89853621C9.55285851 9.7003267 9.60144083 9.40107233 9.80159045 9.20288272 9.99979995 9.00467322 10.2990543 9.05325554 10.4972439 9.25340515L17.3627429 16.8650999C17.5609524 17.012787 17.5609524 17.3120414 17.3122205 17.5102608L17.3122404 17.510231zM20.8934828 20.7944875C21.04311 20.5457555 21.3404242 20.4466508 21.5891363 20.596278L37.3099897 29.0024226C37.5587216 29.1520497 37.6578264 29.449364 37.5081992 29.698076 37.4090944 29.8477032 37.2594673 29.946808 37.0612578 29.946808 36.962153 29.946808 36.9116306 29.946808 36.8125258 29.8962855L21.0916724 21.490141C20.8429405 21.3405138 20.7943581 21.0431995 20.8934629 20.7944875L20.8934828 20.7944875zM14.3757111 16.8630305C14.2766063 17.0126577 14.1269792 17.1117624 13.9287696 17.1117624 13.8296649 17.1117624 13.7791425 17.1117624 13.6800377 17.06124L1.44143143 10.5454581C1.19269949 10.3958309 1.09359474 10.0985167 1.24322192 9.84980465 1.39284911 9.60109261 1.69016337 9.50196795 1.93887541 9.65159514L14.2257357 16.2176208C14.4258853 16.3167256 14.4764127 16.6645623 14.3753629 16.8627817L14.3757111 16.8630305zM36.1651263 23.0330749L26.1651075 21.5406833C25.9163756 21.4901609 25.718166 21.2414289 25.7667484 20.9926771 25.8172708 20.7439452 26.0660027 20.5457356 26.3147546 20.594318L36.3147734 22.0867096C36.5635054 22.137232 36.7617149 22.385964 36.7131325 22.6347158 36.6626101 22.8834477 36.4644006 23.0816573 36.2156687 23.0816573 36.2156687 23.0330749 36.2156687 23.0330749 36.1651462 23.0330749L36.1651263 23.0330749zM18.2081728 20.1980283L18.1576504 20.1980283 1.89107908 17.8098037C1.64234714 17.7592813 1.44413763 17.5105494 1.49271995 17.2617975 1.54324239 17.0130656 1.79197432 16.8148561 2.04072616 16.8634384L18.3072974 19.251663C18.5560294 19.3021854 18.7542389 19.5509173 18.7056566 19.7996692 18.6551341 19.9978787 18.4569246 20.1980283 18.2081927 20.1980283L18.2081728 20.1980283zM39.3986415 16.5153032L25.3706577 19.3504493 25.2715529 19.3504493C25.022821 19.3504493 24.8246115 19.2008222 24.7740891 18.9520902 24.7235666 18.7033583 24.8731938 18.404084 25.1724482 18.3555315L39.200432 15.5689379C39.449164 15.5184155 39.7484382 15.6680426 39.7969907 15.967297 39.8475131 16.217974 39.6473635 16.466701 39.3986316 16.5153032L39.3986415 16.5153032zM13.6802566 20.9924781C13.730779 21.24121 13.5811518 21.5404843 13.2818975 21.5890368L1.14477382 24.0258138 1.04566907 24.0258138C.79693713 24.0258138.598727623 23.8761867.548205191 23.6274547.49768276 23.3787228.647309945 23.0794485.946564314 23.030896L13.083688 20.594119C13.3810022 20.5455367 13.6297541 20.7437462 13.6802466 20.9924781L13.6802566 20.9924781zM9.05334508 26.9137906C8.95424033 26.9643131 8.9037179 26.9643131 8.80461314 26.9643131 8.65498596 26.9643131 8.45677645 26.8652083 8.3576717 26.7155811 8.20804451 26.4668492 8.30714927 26.1675749 8.50729888 26.0199276L15.9185157 21.5894149C16.1672476 21.4397877 16.4665219 21.5388924 16.6141692 21.739042 16.7637964 21.987774 16.6646916 22.2870483 16.464542 22.4346955L9.05334508 26.9137906zM21.7894152 18.7056367C21.6397881 18.4569047 21.7388928 18.1576305 21.9390424 18.0099832L30.6954016 12.7358712C30.9441335 12.586244 31.2434078 12.6853487 31.3910551 12.8854984 31.5406822 13.1342303 31.4415775 13.4335046 31.2414279 13.5811518L22.4368147 18.853274C22.33771 18.9037964 22.2871875 18.9037964 22.1880828 18.9037964 22.0384556 18.9543189 21.8888284 18.853274 21.7897237 18.7055869L21.7894152 18.7056367zM6.02030783 28.6549142C5.87068064 28.6549142 5.67247114 28.5558094 5.57336638 28.4061823 5.4237392 28.1574503 5.52284395 27.858176 5.72299357 27.7105288L6.41864705 27.3121696C6.66737899 27.1625425 6.96665326 27.2616472 7.11430054 27.4617968 7.26392772 27.7105288 7.16482297 28.009803 6.96467335 28.1574503L6.26901987 28.5558094C6.16797501 28.6549142 6.06887025 28.6549142 6.02028793 28.6549142L6.02030783 28.6549142zM33.8782849 11.4416692C34.0279121 11.6904011 33.9288073 11.9896754 33.7286577 12.1373226L33.0330042 12.5356818C32.9338995 12.5862042 32.883377 12.5862042 32.7842723 12.5862042 32.6346451 12.5862042 32.4364356 12.4870994 32.3373308 12.3374723 32.1877037 12.0887403 32.2868084 11.789466 32.486958 11.6418188L33.1826115 11.2434596C33.4293984 11.0938325 33.7286776 11.1929372 33.878265 11.4416692L33.8782849 11.4416692zM6.86549895 35.9671357C6.7663942 35.9671357 6.66728945 35.9166133 6.56624459 35.868031 6.36803508 35.7184038 6.31751265 35.3705671 6.51572215 35.1723775L14.972608 24.8246314C15.1222352 24.6264219 15.4700719 24.5758994 15.6682615 24.774109 15.866471 24.9237361 15.9169935 25.2715728 15.718784 25.4697624L7.26388793 35.8175085C7.16284306 35.9166133 7.01515599 35.9671357 6.8655288 35.9671357L6.86549895 35.9671357zM23.5787928 15.6193708C23.479688 15.7184755 23.3300609 15.8175803 23.1804337 15.8175803 23.0813289 15.8175803 22.9822242 15.7670579 22.8811793 15.7184755 22.6829698 15.5688484 22.6324474 15.2210117 22.8306569 15.0228221L31.2875428 4.67507596C31.4857523 4.47686646 31.7850066 4.42634403 31.9831963 4.62455353 32.1814058 4.77418072 32.2319282 5.12201741 32.0337187 5.32020702L23.5787928 15.6193708zM13.6802566 36.8630681C13.6297342 36.8630681 13.5811518 36.8630681 13.5306294 36.8125457 13.2818975 36.713441 13.1322703 36.4141866 13.231375 36.1654447L18.3557504 21.7389923C18.4548552 21.4902604 18.7541096 21.3406332 19.0028514 21.4397379 19.2515834 21.5388427 19.4012106 21.8380971 19.3021058 22.0868389L14.1777304 36.5132913C14.0786257 36.713441 13.9289985 36.8630681 13.6802665 36.8630681L13.6802566 36.8630681zM25.5686483 4.47717489L20.4462628 18.9036273C20.3957403 19.1018368 20.1975308 19.251464 19.9993213 19.251464 19.9487989 19.251464 19.9002166 19.251464 19.8496941 19.2009416 19.6009622 19.1018368 19.451335 18.8025824 19.5504398 18.5538405L24.6748152 4.12738814C24.7739199 3.8786562 25.0731743 3.72902901 25.3219162 3.82813377 25.5201257 3.9291836 25.6697529 4.22843797 25.568703 4.47717489L25.5686483 4.47717489zM26.1675948 2.5380607C26.1170724 2.7362702 25.9188629 2.88589739 25.7206534 2.88589739 25.6701309 2.88589739 25.6215486 2.88589739 25.5710262 2.83537496 25.3222942 2.7362702 25.1726671 2.43701583 25.2717718 2.18827395L25.8683305.546245184C25.9674352.297513246 26.2666896.147886061 26.5154315.246990814 26.7641634.346095568 26.9137906.645349937 26.8146859.894091825L26.1675948 2.5380607zM13.3807833 38.9011776L12.7842247 40.5432054C12.7337022 40.7414149 12.5354927 40.8910421 12.3372832 40.8910421 12.2867608 40.8910421 12.2381785 40.8910421 12.187656 40.8405197 11.9389241 40.7414149 11.7892969 40.4421606 11.8884017 40.1934197L12.4849603 38.5513909C12.5840651 38.302659 12.8833195 38.1530318 13.1320614 38.2521365 13.332211 38.4037088 13.4818382 38.6524407 13.3807933 38.9011776L13.3807833 38.9011776zM19.5000865 28.3554409C19.7993408 28.3554409 19.9975504 28.5536504 19.9975504 28.8529048L20.0480728 39.9951007C20.0480728 40.2943551 19.8498633 40.4925651 19.5506089 40.4925651 19.2513545 40.4925651 19.053145 40.2943551 19.053145 39.9951007L19.0026226 28.8529048C19.0026226 28.6041729 19.2513545 28.3554409 19.5000865 28.3554409zM19.1523592 16.0685807C18.8531049 16.0685807 18.6548954 15.8703712 18.6548954 15.5711168L18.6043729 2.08885082C18.6043729 1.78959645 18.8025824 1.59138694 19.1018368 1.59138694 19.4010912 1.59138694 19.5993007 1.78959645 19.5993007 2.08885082L19.6498231 15.5711168C19.6498231 15.868431 19.4010912 16.0685807 19.1523592 16.0685807z"/>
  </g>
</svg>
