<svg xmlns="http://www.w3.org/2000/svg" width="65" height="49" viewBox="0 0 65 49">
  <g fill="none" fill-rule="evenodd" transform="translate(0 -1)">
    <g transform="translate(.293 .896)">
      <polygon fill="#A0A0A0" points="51.029 25.07 59.89 25.07 59.89 46.726 54.437 45.426 52.392 42.828 51.029 29.401"/>
      <rect width="15.087" height="12.463" x="9.71" y="11.305" fill="#FFF"/>
      <g transform="translate(.215 .154)">
        <polygon fill="#D8D8D8" points="50.992 .95 50.992 31.45 50.992 41.95 56.492 47.45 7.492 46.95 3.992 45.95 .992 40.45 1.492 1.45"/>
        <rect width="16" height="14" x="9" y="10" fill="#FFF"/>
        <rect width="23.543" height="14.253" x="40.084" y="10.067" fill="#E46F25"/>
        <polygon fill="#000" points="8.053 32.797 42.948 32.797 42.948 30.106 8.053 30.106"/>
        <path fill="#000" d="M8.05265751,10.4437514 L8.05265751,24.1237436 L8.05265751,24.1237436 C8.05265751,24.9289747 8.70542634,25.5817436 9.51065751,25.5817436 L24.6330664,25.5817436 L24.6330664,25.5817436 C25.4382976,25.5817436 26.0910664,24.9289747 26.0910664,24.1237436 L26.0910664,10.4437514 L26.0910664,10.4437514 C26.0910664,9.63852024 25.4382976,8.98575141 24.6330664,8.98575141 L9.51065751,8.98575141 L9.51065751,8.98575141 C8.70542634,8.98575141 8.05265751,9.63852024 8.05265751,10.4437514 Z M23.4003918,22.8910689 L10.8069586,22.8910689 L10.8069586,11.7400525 L23.4003918,11.7400525 L23.4003918,22.8910689 Z"/>
        <polygon fill="#000" points="8.053 39.49 42.948 39.49 42.948 36.8 8.053 36.8"/>
        <path fill="#000" d="M31.469136,22.8910689 L31.469136,25.5814812 L34.4875194,25.5814812 C34.4209019,25.3201276 34.4209019,24.9921565 34.4209019,24.7282316 L34.4209019,22.8910689 L31.469136,22.8910689 Z"/>
        <polygon fill="#000" points="31.469 18.63 34.421 18.63 34.421 15.94 31.469 15.94"/>
        <polygon fill="#000" points="31.469 11.676 34.421 11.676 34.421 8.986 31.469 8.986"/>
      </g>
    </g>
    <g stroke="#000" transform="translate(1 2)">
      <path stroke-width="2.5" d="M50.5,8.5 L50.5,0.5 L0.489796981,0.5 L0.489796981,39.5029579 L0.489796981,39.5029579 C0.489796981,43.3689512 3.62380373,46.5029579 7.48979698,46.5029579 L59.0000001,46.5029579"/>
      <g stroke-width="2" transform="translate(39.277 9.269)">
        <rect width="23.255" height="14.311" x=".447"/>
        <polyline points=".397 0 12.075 6.736 23.702 0"/>
      </g>
      <path stroke-width="2.5" d="M50.5 24.5L50.5 29.5 50.5 40C51.1666667 44.3333333 54.1666667 46.5 59.5 46.5L59.5 24M50.5636055 35.8333333L54.9737375 35.8333333M50.5636055 29.8333333L54.9737375 29.8333333"/>
    </g>
  </g>
</svg>
