<svg xmlns="http://www.w3.org/2000/svg" width="49" height="65" viewBox="0 0 49 65">
  <g fill="none" fill-rule="evenodd" transform="translate(1)">
    <g transform="translate(9.412 .411)">
      <rect width="37.206" height="55" fill="#FFF"/>
      <polygon stroke="#000" stroke-width="2" points="37.195 13.886 37.195 55.618 0 55.618 0 3 26.309 3"/>
      <path stroke="#000" stroke-width="2" d="M6.35041554 12.0720222L17.2368422 12.0720222M6.35041554 21.1440444L30.8448755 21.1440444M6.35041554 28.4016622L30.8448755 28.4016622M6.35041554 35.6592799L30.8448755 35.6592799M6.35041554 42.9168977L30.8448755 42.9168977"/>
      <polyline stroke="#000" stroke-width="2" points="37.195 13.886 26.309 13.886 26.309 3"/>
    </g>
    <g stroke="#000" stroke-width="2" transform="translate(.768 41.143)">
      <circle cx="11.259" cy="11.259" r="11.259" fill="#F47A2D"/>
      <g transform="translate(6.607 6.277)">
        <polyline stroke-linejoin="bevel" points=".236 4.478 4.601 .113 8.966 4.478"/>
        <path d="M4.60090385,0.112971628 L4.60090385,11.0264572"/>
      </g>
    </g>
  </g>
</svg>
