<svg xmlns="http://www.w3.org/2000/svg" width="68" height="56" viewBox="0 0 68 56">
  <g fill="none" fill-rule="evenodd">
    <polygon fill="#A0A0A0" points="36.501 41.132 44.565 39.449 37.695 52.019 38.996 53.415 38.42 54.378 34.383 54.378"/>
    <polygon fill="#A0A0A0" points="9.306 32.151 7.8 36.271 6.689 39.29 4.211 41.189 1.251 47.908 .72 51.471 1.768 53.281 3.141 52.662 5.013 45.961 14.356 42.716 11.27 36.271"/>
    <path fill="#000" d="M1.01605236,53.5916894 C0.23279305,53.0257797 -0.101840541,51.9799394 0.026846583,50.4828036 C0.31367672,47.055107 3.63789953,40.4150969 3.77769498,40.1354383 C3.89168711,39.9097952 4.09394335,39.737874 4.34399364,39.6626596 C5.05003126,39.4477535 7.77486579,37.4455635 7.48802624,35.0637898 C7.09455618,31.7685873 9.51416593,29.3689338 9.62082469,29.2686235 C9.98855732,28.9104588 10.5842366,28.9104588 10.9520351,29.2686235 C11.3198336,29.6267881 11.3197583,30.2034165 10.9557159,30.5616544 C10.9152646,30.6010542 9.0766203,32.4670917 9.35978846,34.852533 C9.73854469,38.0258779 6.88131399,40.5152054 5.31842911,41.2530455 C4.66754715,42.5925639 2.13024562,47.9365173 1.90591394,50.636735 C1.80662622,51.8437595 2.10816077,52.0981112 2.14125981,52.1231429 C2.17434944,52.1482113 2.2184815,52.1589575 2.26628495,52.1661186 L4.72640244,45.4146118 C4.81832854,45.1674762 5.00955177,44.9704774 5.25961147,44.8701946 L14.7063948,41.1488108 C15.191791,40.9589823 15.7360801,41.1846346 15.9309465,41.6538282 C16.1258411,42.123031 15.8941666,42.6567479 15.4124513,42.8465489 L6.35897794,46.4138913 L3.85470957,53.2871642 C3.76277405,53.5378849 3.56420803,53.7348746 3.31414834,53.8351665 C3.23691723,53.856659 2.84345659,53.9999266 2.33962814,53.9999266 C1.93165136,54 1.453598,53.9068783 1.01605236,53.5916894 Z"/>
    <path fill="#D8D8D8" d="M32.8710937,22.1391602 L42.9672852,22.9614258 L47.4892578,22.9614258 L52.4169922,20.2041016 L57.3486328,17.2973633 L59.7392578,14.5800781 L60.3134766,18.770752 L62.7504883,20.765625 L64.6484375,24.0009766 L64.6484375,25.5410156 L63.2592773,27.9433594 L59.7392578,27.9433594 L57.3486328,29.9487305 C55.3720703,34.2081706 55.3720703,38.5398763 57.3486328,42.9438477 C59.3251953,47.347819 61.7584635,50.1774089 64.6484375,51.4326172 L67.043457,52.1323242 C67.4093424,53.4119466 66.6110026,53.9591471 64.6484375,53.7739258 C62.6858724,53.5887044 61.7045898,53.2374674 61.7045898,52.7202148 L45.5307617,39.1132812 L30.9453125,41.112793 L23.5239258,41.112793 L19.3730469,45.9677734 L18.3759766,48.4643555 L19.3730469,51.4326172 L20.7895508,52.7202148 L22.7944336,53.7739258 L22.7944336,55.0004883 L19.3730469,55.0004883 L13.1137695,46.8920898 L14.4692383,42.1767578 L10.8105469,35.6992187 L9.64599609,30.7900391 L9.64599609,25.5410156 C6.26123047,20.3502604 4.45556641,16.4894206 4.22900391,13.9584961 C3.88916016,10.1621094 3.97412109,5.85791016 5.98974609,3.62060547 C8.00537109,1.38330078 11.1621094,0.498046875 13.1137695,1.38330078 C14.4148763,1.97347005 15.8111979,2.95963542 17.3027344,4.34179687 L16.5957031,6.20458984 L13.1137695,4.34179687 L10.8105469,4.34179687 L8.55419922,7.94775391 L8.55419922,11.9052734 C9.1023763,17.2998047 11.612793,20.2532552 16.0854492,20.765625 C20.5581055,21.2779948 26.1533203,21.7358398 32.8710937,22.1391602 Z"/>
    <path fill="#000" d="M22.8721926,56 L19.4888258,56 C19.2077794,56 18.9447568,55.8751183 18.7682,55.6574706 L12.4087065,47.8006674 C12.1744997,47.5116548 12.1420773,47.1084748 12.3222314,46.7873284 C14.6750918,42.5949508 12.4987882,39.7405388 12.4050999,39.6227087 C7.1048917,33.6533798 8.57861174,27.3026101 9.17669653,25.4401634 C2.10372586,16.8447754 2.5937975,10.1048923 3.53058793,6.82209021 C4.43136782,3.68223708 6.46714367,1.24169203 8.84518562,0.456705911 C9.76398,0.153425784 10.664806,0 11.5258673,0 C15.4100056,0 17.3124576,3.01855205 17.6547606,3.62149519 C18.1952322,4.57774603 18.1519901,5.28061642 18.022282,5.70160793 C17.8781569,6.16544759 17.5538776,6.54009258 17.1106916,6.76134833 C16.8548729,6.88622999 16.5918411,6.95045198 16.3216052,6.95045198 C15.618994,6.95045198 15.0497065,6.52586162 14.530856,6.08699465 C14.1489266,5.76587559 13.1436572,5.01656733 12.1131508,5.01656733 C11.0502682,5.01656733 10.1710356,5.89430129 9.49371652,7.6283771 C8.47400224,10.2508738 9.20546621,14.2791113 11.2304131,17.200933 C11.9942718,18.3034211 13.6012603,20.1552722 15.7595863,20.1552722 C16.1018801,20.1552722 16.4477805,20.1053177 16.7864953,20.0125516 C16.8873876,19.9840075 16.9954745,19.9733023 17.0999641,19.9804452 L42.790676,21.732369 C42.9131801,21.7395028 43.0320868,21.7716092 43.140183,21.8251351 C43.9400799,22.2211814 44.8948663,22.4316954 45.9073859,22.4316954 C47.3630269,22.4316954 48.714252,21.989257 49.4312343,21.2756814 C50.9157465,19.8056364 55.279072,17.5613836 56.26641,17.0618386 L59.1993684,13.9148609 C59.4551871,13.6365534 59.8587375,13.5473588 60.2118879,13.6829365 C60.5649923,13.8185233 60.7991991,14.1574813 60.7991991,14.5321263 L60.7991991,18.1857736 C62.7593012,18.9421882 63.6456363,20.5621058 63.6852995,20.6370056 C64.1573105,21.6181926 64.7194032,22.6101578 64.9103402,22.799234 C65.4508119,23.2737789 66.0092888,24.2513762 66.1137968,24.444106 C66.2615285,24.7117083 66.2651259,25.0328274 66.1246073,25.3004296 L65.1012957,27.2699282 C64.8995205,27.9014703 64.1860987,28.8077483 62.564693,28.8077483 C62.3412967,28.8077483 62.092682,28.7899003 61.8188488,28.7506601 C60.298363,28.5258786 59.2389855,29.6141174 59.2317908,29.6248226 C56.731254,31.8798537 56.9473725,37.0891327 57.2356228,38.9087404 C58.1760106,45.0992063 63.7140138,49.8696822 64.8850941,50.8150543 L66.0741612,50.8685803 C66.9317082,50.9435074 67.3821258,51.3574017 67.612726,51.6927883 C68.2396728,52.5954949 67.933408,53.8121777 67.8649474,54.044093 C67.7532538,54.4365769 67.389339,54.7077415 66.9785754,54.7077415 L63.123216,54.7077415 C62.9034263,54.7077415 62.687234,54.6292429 62.521497,54.4865223 L45.4247949,39.8436174 C40.4920712,41.7097177 33.6245193,42.1093354 28.648166,42.1093354 C26.403411,42.1093354 24.6198565,42.0272745 23.6650792,41.9737485 C23.3516105,42.8229384 22.6309755,44.1716001 20.9951896,45.4097298 C18.4009369,47.3756661 19.1575824,49.2346418 19.1647771,49.2524533 C19.4998669,50.2015796 20.4691443,52.0390901 21.4815716,52.0390901 L21.5752507,52.0390901 C22.6201465,52.0390901 23.1822577,52.495796 23.4669106,52.8775748 C24.1911429,53.8480748 23.7984031,55.2075056 23.7515543,55.3573052 C23.6326476,55.7390839 23.2759459,55.9995433 22.8723955,55.9995433 L22.8721926,56 Z M19.9320395,54.1731764 L22.0507023,54.1731764 C22.0398917,54.0804103 22.0182706,54.0054831 21.9822417,53.9590909 C21.9354021,53.8984403 21.7804665,53.8627533 21.5750847,53.8627533 L21.4814056,53.8627533 C18.8907502,53.8627533 17.586383,50.3090333 17.4459013,49.902291 C17.4134697,49.8344976 16.1596132,46.7695625 19.877996,43.9544273 C21.8056295,42.4950692 22.0579062,40.9501245 22.0686983,40.8859116 C22.1407563,40.4113668 22.5695344,40.0617036 23.0559441,40.0973814 C23.0775651,40.1009529 25.4052071,40.2757799 28.6515973,40.2757799 C33.6419711,40.2757799 40.5745523,39.8690285 45.2511253,37.9387244 C45.5718072,37.806709 45.942926,37.8637972 46.2095921,38.0921502 L63.4686367,52.8885083 L66.1421237,52.8885083 C66.1313132,52.8100097 66.1132987,52.7529214 66.0880802,52.7279488 C66.0880802,52.7279488 66.0556486,52.7029761 65.9475617,52.6958423 L64.4991154,52.6316112 C64.3117573,52.6244775 64.131594,52.5602555 63.9838715,52.446079 C63.681204,52.2212975 56.5685978,46.8085926 55.4084019,39.1906467 C55.3615623,38.890938 54.258998,31.6371876 57.9306151,28.3292667 C57.9342124,28.3221329 59.6060642,26.5773428 62.0886142,26.9448997 C62.2615644,26.9698816 62.4201067,26.984149 62.5606252,26.984149 C63.2199943,26.984149 63.3316971,26.7308234 63.346105,26.6987078 C63.3641195,26.6166469 63.3785366,26.5916651 63.4145656,26.5203094 L64.2468849,24.9147141 C64.0523136,24.611434 63.82532,24.2938772 63.6739909,24.1582995 C63.1335192,23.6837546 62.3480395,22.1102475 62.0310102,21.4537784 C62.0201997,21.4395109 61.2815595,20.1336243 59.6529683,19.737569 C59.2386073,19.63766 58.950357,19.2701579 58.950357,18.8491298 L58.957561,16.8724153 L57.5127121,18.4209224 C57.4370475,18.5029924 57.3505725,18.5672144 57.2496802,18.6171597 C55.8336103,19.3271913 51.8990167,21.4180458 50.7388207,22.5669351 C49.6723407,23.6230219 47.8635124,24.2582085 45.9106051,24.2582085 C44.6855643,24.2582085 43.5072893,24.0120166 42.4912647,23.541034 L17.1252379,21.8141377 C14.462543,22.4742238 11.7277163,21.1469177 9.7099642,18.2353901 C7.32472753,14.7958466 6.52841876,10.1645746 7.77144632,6.97119556 C8.98569496,3.84559165 10.801718,3.18912257 12.1095903,3.18912257 C13.6913235,3.18912257 15.0533408,4.13103284 15.71996,4.69122831 C16.1163065,5.02305256 16.2712422,5.10511348 16.3288922,5.1193901 C16.2712422,5.09441742 16.2532277,4.88033196 16.0442485,4.50925841 C15.7920272,4.05968624 14.3795915,1.82254888 11.5259596,1.82254888 C10.8629839,1.82254888 10.1567476,1.9438591 9.42897319,2.18648868 C7.64901604,2.77521 6.03121697,4.78761153 5.30694772,7.31730557 C3.85490411,12.3945965 5.90146282,18.7203387 10.9278748,24.6684765 C11.1476645,24.928945 11.2053145,25.2893134 11.0719999,25.6032622 C10.9603064,25.8744359 8.40211031,32.3503613 13.821216,38.4549665 C13.9689478,38.6369364 16.7073164,42.1193007 14.2247665,47.1252542 L19.9320395,54.1731764 Z"/>
    <path fill="#000" d="M61 24C60.4494278 24 60 23.5506023 60 23 60 22.4494278 60.4493977 22 61 22 61.5505722 22 62 22.4493977 62 23 62 23.5529274 61.5506023 24 61 24zM61 22.7953259C60.8870618 22.7953259 60.7953018 22.8870859 60.7953018 23.0000241 60.7953018 23.1129623 60.8870618 23.2047223 61 23.2047223 61.1129382 23.2047223 61.2046982 23.1129623 61.2046982 23.0000241 61.2046982 22.8870859 61.1129382 22.7953259 61 22.7953259zM39.0505259 54.9998549L34.9105132 54.9998549C34.4090208 54.9998549 34 54.5925673 34 54.0931997 34 52.1984715 35.9348406 42.4091333 36.1553669 41.3012005 36.2513988 40.8089139 36.7351089 40.4866252 37.2259484 40.5893311 37.7203298 40.684956 38.0404298 41.1630716 37.940847 41.6553764 37.4286833 44.22656 36.2123287 50.5873814 35.8992942 53.1907513L38.1257722 53.1907513C38.11155 53.1482473 38.0902076 53.1128333 38.0688652 53.0880454 38.004847 53.0101274 37.8412368 52.9924204 37.7167515 52.9924204 37.3966514 52.9924204 37.1014448 52.8259676 36.9378347 52.5567998 36.7742246 52.287632 36.7635534 51.9476363 36.9093812 51.6678515L43.2829739 39.4878447C43.5141623 39.0451431 44.0654507 38.8716002 44.5100726 39.101809 44.9546944 39.3320178 45.1289393 39.8809704 44.8977509 40.3237083L39.0292199 51.536314C39.2212836 51.6638078 39.3706624 51.8090177 39.4809164 51.9400566 40.2171483 52.8396309 39.9752978 54.132349 39.9432841 54.2775046 39.8543634 54.6989542 39.4844674 55 39.0505532 55L39.0505259 54.9998549z"/>
  </g>
</svg>
