<svg xmlns="http://www.w3.org/2000/svg" xmlns:xlink="http://www.w3.org/1999/xlink" width="73" height="50" viewBox="0 0 73 50">
  <defs>
    <path id="service-template-a" d="M45.9901157,26.0683591 L50.4946157,26.0683591 L53.5464026,21.7415317 L53.5464026,21.7415317 C53.8647257,21.2902127 54.4886439,21.1823983 54.9399629,21.5007215 C55.0238873,21.5599148 55.0981925,21.6316829 55.1602645,21.713501 L58.4641157,26.0683591 L71.6311157,26.0683591 L71.6311157,42.0073591 L45.9901157,42.0073591 L45.9901157,26.0683591 Z"/>
    <path id="service-template-b" d="M0.025265625,20.4256563 L3.72373901,20.4256563 L10.2671919,20.4256563 L21.0781141,20.4256563 L21.0781141,24.7079704 L24.9872275,27.7173023 L24.9872275,27.7173023 C25.424856,28.0541995 25.5065148,28.6820767 25.1696176,29.1197052 C25.1264517,29.1757776 25.077456,29.2271098 25.0234538,29.2728392 L21.0781141,32.613781 L21.0781141,42.8312227 L0.025265625,42.8312227 L0.025265625,20.4256563 Z"/>
  </defs>
  <g fill="none" fill-rule="evenodd" transform="translate(.624 .283)">
    <rect width="54" height="36" x="11.376" y="12.717" fill="#FFF"/>
    <path fill="#DADADA" d="M16.3758438,0.71709375 L60.3758438,0.71709375 L60.3758438,0.71709375 C63.1372675,0.71709375 65.3758438,2.95567 65.3758438,5.71709375 L65.3758438,13.7170938 L11.3758438,13.7170938 L11.3758438,5.71709375 L11.3758438,5.71709375 C11.3758438,2.95567 13.61442,0.71709375 16.3758438,0.71709375 Z"/>
    <path fill="#000" d="M18.1252437 9.90671772C19.3759008 9.92025201 20.4208062 8.89431402 20.4181035 7.65446772 20.4126912 6.42820422 19.4084025 5.41573122 18.1766643 5.40221772 16.9124937 5.3832711 15.9027927 6.39029712 15.9027927 7.65717042 15.9000858 8.90242212 16.8800613 9.89320422 18.1252437 9.90671772zM24.8958537 9.90671772C26.1275226 9.90942735 27.145401 8.91323292 27.1670226 7.68426672 27.1859692 6.44442042 26.1573216 5.40221772 24.9039618 5.39951502 23.6614128 5.39680539 22.6598199 6.38759442 22.6517118 7.62196602 22.6435898 8.90242212 23.6289804 9.90401502 24.8958537 9.90671772zM31.6366647 9.90671772C32.8710363 9.91213005 33.8889147 8.91863832 33.916011 7.68967212 33.9403769 6.44982582 32.9117154 5.40762312 31.6583556 5.39951502 30.4158066 5.39139306 29.4088083 6.38489172 29.4007002 7.61926332 29.3898755 8.89971942 30.3724941 9.90131232 31.636734 9.90671772L31.6366647 9.90671772z"/>
    <use fill="#E67024" xlink:href="#service-template-a"/>
    <path stroke="#000" stroke-width="1.9" d="M46.9401157,27.0183591 L46.9401157,41.0573591 L70.6811157,41.0573591 L70.6811157,27.0183591 L57.9923879,27.0183591 L54.4034217,22.2876865 C54.4003181,22.2835956 54.3966028,22.2800072 54.3924066,22.2770475 C54.3698407,22.2611313 54.3386448,22.2665221 54.3227286,22.289088 L50.9870912,27.0183591 L46.9401157,27.0183591 Z"/>
    <use fill="#E67024" xlink:href="#service-template-b"/>
    <path stroke="#000" stroke-width="1.9" d="M0.975265625,21.3756563 L0.975265625,41.8812227 L20.1281141,41.8812227 L20.1281141,32.1733917 L24.4095327,28.5478558 C24.4122329,28.5455693 24.4146826,28.5430027 24.4168409,28.5401991 C24.4336858,28.5183177 24.4296029,28.4869238 24.4077214,28.470079 L20.1281141,25.1755317 L20.1281141,21.3756563 L0.975265625,21.3756563 Z"/>
    <rect width="13.13" height="15.334" x="26.629" y="20.532" fill="#000"/>
    <rect width="16.632" height="2.564" x="45.738" y="17.133" fill="#000"/>
    <path stroke="#000" stroke-linecap="square" stroke-width="1.9" d="M12.474,13.6333333 L64.449,13.6333333"/>
    <polyline stroke="#000" stroke-width="1.9" points="65.319 23.869 65.319 1.347 11.382 1.347 11.382 18.672"/>
    <polyline stroke="#000" stroke-width="1.9" points="11.434 44.313 11.434 48.52 65.443 48.52 65.443 43.62"/>
  </g>
</svg>
