<svg xmlns="http://www.w3.org/2000/svg" width="55" height="48" viewBox="0 0 55 48">
  <g fill="none" fill-rule="evenodd">
    <path fill="#D8D8D8" d="M16.9335938 46.4746094L32.0527344 46.4746094 48.3496094 46.4746094 52.7910156 44.3242188 53.6555176 39.9306641 51.7866211 36.0080566 45.8535156 33.3867187 21.9492188 33.3867187C20.7205404 33.4985352 19.9454753 34.2407227 19.6240234 35.6132812 19.3025716 36.9858398 19.619873 38.2530111 20.5759277 39.4147949L21.0541992 41.9350586 19.1611328 43.9807129 16.9335938 46.4746094zM7.40039063.7578125L2.63867188 2.890625C-1.16471354 9.31510417 1.31966146 13.2252604 10.0917969 14.6210937 18.8639323 16.0169271 17.9667969 11.3958333 7.40039063.7578125z"/>
    <path fill="#FFF" d="M8.18164062,1.87890625 L15.4492187,45.2128906 L20.2734375,43.0664062 L20.2734375,38.2558594 C18.875,35.2727865 19.7734375,33.6901042 22.96875,33.5078125 C26.1640625,33.3255208 34.1152344,33.4166667 46.8222656,33.78125 L40.2871094,1.87890625 L8.18164062,1.87890625 Z"/>
    <path fill="#000" d="M47.4838058,32.7606012 L41.6158014,0.926181065 C41.4933258,0.370916637 41.0657447,0 40.4555119,0 L7.57477503,0 L7.02471838,0 C5.74198625,0 3.35694003,0.247264802 1.70677006,2.09740032 C0.361716348,3.57884581 -0.18834031,5.61333468 0.0565999749,8.20530902 C0.424021321,12.7710818 3.78449907,15.5475705 8.91746334,15.5475705 L8.97762853,15.5475705 L14.603058,47.0738189 C14.7255336,47.6290834 15.1531146,48 15.7633475,48 L47.7265898,48 C51.5769864,48 54.8173702,45.0393301 55,41.2130029 L55,40.7813737 C54.9398238,36.4000042 50.5995357,33.0681955 47.4840148,32.760579 L47.4838058,32.7606012 Z M45.1610816,32.7606012 L21.0812512,32.4526016 C20.1036356,32.4526016 19.2484625,32.8842308 18.6360844,33.6867878 C17.9034089,34.6736593 17.5961473,36.0921933 17.9034089,37.3263796 C18.1483546,38.1896492 18.5136418,38.9314269 18.8810246,39.6710947 C19.248446,40.4107069 19.6137001,41.0896287 19.7361977,41.768495 C19.918833,43.0633716 17.8410875,43.9288068 16.4358578,44.3604693 L11.0577888,14.4367141 L11.0577888,14.1287145 L8.85756217,2.28381369 L39.5380724,2.28381369 L45.1610816,32.7606012 Z M2.25666225,8.02079465 C2.07402694,6.04699619 2.43929756,4.62846216 3.29659937,3.63942516 C4.21409387,2.58964224 5.61932362,2.34454852 6.4744417,2.28163706 L8.4899043,13.2025778 C6.16718005,13.141843 2.6241001,12.2785623 2.25666225,8.02085018 L2.25666225,8.02079465 Z M52.6170996,41.0895676 C52.4946239,43.681542 50.2943753,45.7160308 47.6665896,45.7160308 L19.2462622,45.7160308 C20.9566084,44.8527612 22.301662,43.4342272 22.0567217,41.3975728 C21.9342461,40.2870439 21.3841675,39.3608629 20.9566084,38.4975933 C20.6514975,37.8815829 20.2840541,37.3263185 20.1616115,36.7081426 C20.0391359,36.213613 20.1616115,35.4739564 20.4667224,35.1030953 C20.7116682,34.7950956 20.9566139,34.7950956 21.0769553,34.7950956 L46.2568989,35.1030953 C46.3793745,35.1638301 46.5620099,35.1638301 46.7467904,35.1030953 L46.869266,35.1030953 L47.3591575,35.1030953 C49.3144439,35.3503601 52.6147838,37.6950696 52.6147838,40.7795635 C52.6169345,40.9053642 52.6169345,41.0289994 52.6169345,41.0897286 L52.6170996,41.0895676 Z"/>
    <path fill="#000" d="M18.194187 12L35.805813 12C36.4338736 12 37 11.5777852 37 11 37 10.4740685 36.4957965 10 35.805813 10L18.194187 10C17.5661264 10 17 10.4222196 17 11 17.0619172 11.5777946 17.5639128 12 18.194187 12zM18 17C18 17.5259315 18.5042035 18 19.194187 18L36.805813 18C37.4338736 18 38 17.5777852 38 17 38 16.4740685 37.4957965 16 36.805813 16L19.194187 16C18.5661264 16 18 16.420366 18 17zM20.194187 22C19.5661264 22 19 22.4222196 19 23 19 23.5259315 19.5042035 24 20.194187 24L37.805813 24C38.4338736 24 39 23.5777852 39 23 39 22.4740685 38.4957965 22 37.805813 22L20.194187 22z"/>
  </g>
</svg>
