<svg xmlns="http://www.w3.org/2000/svg" width="67" height="40" viewBox="0 0 67 40">
  <g fill="none" fill-rule="evenodd" transform="translate(.988 .172)">
    <polygon fill="#FFF" points="52.512 10.828 55.012 16.328 56.012 21.328 61.012 23.328 63.512 26.828 64.512 31.828 62.512 36.328 57.012 38.328 10.512 38.828 3.512 36.328 .512 31.828 .512 27.328 2.012 21.328 9.512 17.828 12.012 16.828 16.512 9.328 20.012 5.828 28.512 1.328 35.012 .828 41.012 2.328 48.012 5.328"/>
    <path stroke="#000" stroke-width="2" d="M41.5650202,38.4085181 L56.1127772,38.4085181 C60.8563851,38.4085181 64.4257812,34.6863706 64.4257812,30.0955141 C64.4257812,25.5046576 60.8563851,21.7825101 56.1127772,21.7825101 C56.1127772,10.3043298 46.2203024,1 34.3597239,1 C23.8645563,1 14.339932,7.99539289 12.469506,17.6260081 C12.469506,17.6260081 11.6059928,17.6260081 10.7372838,17.6260081 C4.80699458,17.6260081 0,22.2781729 0,28.0172631 C0,33.7563533 4.46096579,38.4085181 10.391255,38.4085181 L41.5650202,38.4085181"/>
    <g transform="translate(24.228 9.834)">
      <path fill="#E67024" d="M9.65800016,1.54019781 C12.5920098,4.07865743 15.5260194,5.34788724 18.4600291,5.34788724 C18.4600291,15.9248024 15.3164473,21.4247982 9.02928381,21.8478748 C2.7421203,20.578645 0.227254899,14.8671108 1.4846876,4.71327234 C2.32297607,5.13634894 3.37083665,5.13634894 4.62826935,4.71327234 C5.88570205,4.29019573 7.56227899,3.23250422 9.65800016,1.54019781 Z"/>
      <path fill="#000" d="M18.7639834,4.42832057 C18.7639834,4.28062797 18.7057746,4.13901157 18.6015206,4.03476869 C18.4972666,3.93052582 18.355648,3.87230594 18.2079688,3.87230594 C14.8162388,3.87230594 12.2316294,2.8957991 10.0769357,0.798620213 C9.86060785,0.588375216 9.51657746,0.588375216 9.30110808,0.798620213 C7.14392338,2.89586582 4.56180496,3.87230594 1.17007505,3.87230594 L1.16920765,3.87230594 C0.862528548,3.87230594 0.613185468,4.12164813 0.613185468,4.42832724 C0.613185468,4.98001157 0.613185468,5.54036983 0.590597659,6.14939108 C0.484606656,11.6766876 0.346459828,19.2359083 9.5051768,22.4121248 C9.62333132,22.4529568 9.75191681,22.4529568 9.87006021,22.4121248 C19.028843,19.2359083 18.8907251,11.6764652 18.7864177,6.15628797 C18.7733846,5.55336071 18.7638299,4.98690846 18.7638299,4.42828498 L18.7639834,4.42832057 Z M9.68794531,20.4850852 C2.15565177,17.7877104 2.28370076,11.6136726 2.37999197,6.64195174 C2.37999197,6.26501134 2.39430537,5.9031966 2.39828323,5.54852736 C5.36050831,5.4586671 7.69124626,4.57358393 9.69035564,2.78600782 C11.6815704,4.573645 14.0204086,5.45875057 16.9824301,5.54852736 C16.9824301,5.90240266 16.9927697,6.26501134 17.0007213,6.64195174 C17.0921715,11.6128583 17.2201961,17.7877104 9.6878822,20.4850852 L9.68794531,20.4850852 Z"/>
    </g>
  </g>
</svg>
