<svg xmlns="http://www.w3.org/2000/svg" width="49" height="63" viewBox="0 0 49 63">
  <g fill="none" fill-rule="evenodd">
    <g transform="translate(.95 .836)">
      <g transform="translate(9.412 .411)">
        <polygon fill="#FFF" points=".639 .253 .639 47.753 14.639 53.253 37.139 53.253 37.139 11.253 27.139 .253"/>
        <polygon stroke="#000" stroke-width="2" points="37.195 10.886 37.195 52.618 0 52.618 0 0 26.309 0"/>
        <path stroke="#000" stroke-width="2" d="M6.35041554 25.4016622L30.8448755 25.4016622M6.35041554 32.6592799L30.8448755 32.6592799M6.35041554 39.9168977L30.8448755 39.9168977"/>
        <polyline stroke="#000" stroke-width="2" points="37.195 10.886 26.309 10.886 26.309 0"/>
      </g>
      <g stroke="#000" stroke-width="2" transform="translate(.768 38.143)">
        <circle cx="11.259" cy="11.259" r="11.259" fill="#F47A2D"/>
        <g transform="translate(6.607 6.277)">
          <polyline stroke-linejoin="bevel" points=".236 4.478 4.601 .113 8.966 4.478"/>
          <path d="M4.60090385,0.112971628 L4.60090385,11.0264572"/>
        </g>
      </g>
    </g>
    <path stroke="#000" stroke-width="2" d="M0,3.68774193 C0,8.29741933 7.14499998,12.446129 7.14499998,12.446129 C7.14499998,12.446129 14.29,8.29741933 14.29,3.68774193 C14.29,1.77818306 12.9070967,0 10.8327419,0 C8.92318304,0 7.14499998,1.31721532 7.14499998,3.22677418 C7.14499998,1.31721532 5.36681692,0 3.45725806,0 C1.38290322,0 0,1.77818306 0,3.68774193 Z" transform="translate(15.623 7.785)"/>
  </g>
</svg>
