<svg xmlns="http://www.w3.org/2000/svg" width="41" height="70" viewBox="0 0 41 70">
  <g fill="none" fill-rule="evenodd">
    <polygon fill="#FFF" points="25.5 29.5 28.5 34 28.5 41.5 25.5 45 20.5 47 15.5 45 13 40.5 13 33 18 29"/>
    <polygon fill="#FFF" points="20.5 50.5 28.5 51.5 36.5 56 38.5 60.5 39.5 68 2 68 2 62.5 5.5 56 10 51.5"/>
    <ellipse cx="20.5" cy="37.313" rx="8.5" ry="9.5"/>
    <polygon points="12.729 50.813 3.425 57.813 2.391 61.813 2.391 67.813 39.609 67.813 39.092 60.313 35.99 54.813 27.203 51.313 21 50.813"/>
    <path fill="#000" d="M38.9705116,69.3507812 L2.34744727,69.3507812 C1.56256441,69.3507812 0.92578125,68.7139886 0.92578125,67.9291152 L0.92578125,64.896986 C0.92578125,55.3452859 8.28953732,49.1733598 19.6813471,49.1733598 L21.6324415,49.1733598 C33.0275685,49.1733598 40.3880074,55.3450016 40.3880074,64.896986 L40.3880074,67.9291152 C40.3917132,68.7139886 39.7549206,69.3507812 38.9700377,69.3507812 L38.9705116,69.3507812 Z M3.04604507,67.1105909 L38.2719138,67.1105909 L38.2719138,65.3660646 C38.2719138,55.0787803 29.6971658,51.4135502 21.678465,51.4135502 L19.6438427,51.4135502 C11.6211884,51.4135502 3.05039382,55.0790883 3.05039382,65.3660646 L3.04604507,67.1105909 Z M20.6585055,47.8959455 C15.571595,47.8959455 11.4361581,43.7605086 11.4361581,38.6735981 L11.4361581,36.4004489 C11.4361581,31.3135383 15.571595,27.1781015 20.6585055,27.1781015 C25.7454161,27.1781015 29.880853,31.3172347 29.880853,36.4004489 L29.880853,38.6735981 C29.880853,43.7568123 25.7454161,47.8959455 20.6585055,47.8959455 Z M20.6585055,29.2487568 C16.7814021,29.2487568 13.6265606,32.4034939 13.6265606,36.2807018 L13.6265606,38.7865211 C13.6265606,42.6636246 16.7812976,45.8184661 20.6585055,45.8184661 C24.5357135,45.8184661 27.6904505,42.6637291 27.6904505,38.7865211 L27.6904505,36.2807018 C27.6904505,32.4035984 24.5357135,29.2487568 20.6585055,29.2487568 Z"/>
    <path fill="#E67024" stroke="#000" stroke-width="1.8" d="M22.487435,55.6290999 C21.5501183,55.6290999 20.8089928,56.0885455 20.4534863,56.8879316 C20.0260927,57.8476027 20.267965,59.0044349 21.0809502,59.9068898 C21.3616603,60.2167426 22.1834008,61.0375133 22.977938,61.8320506 C23.5471413,62.4002841 24.1182593,62.9714021 24.5203892,63.3832545 C24.6709442,63.5386658 24.9448486,63.5386658 25.0963808,63.3832545 C25.4965712,62.9733665 26.0667194,62.4031934 26.6339831,61.8368994 C27.4304599,61.0404226 28.2541399,60.2186822 28.5348501,59.9068898 C29.3497773,59.0035646 29.5906773,57.8457378 29.1632837,56.886937 C28.8077772,56.0875509 28.0666517,55.629075 27.129335,55.629075 C25.9860796,55.629075 25.4460439,56.3964091 25.1944765,57.039439 C25.1323119,57.1987344 24.9788426,57.3036382 24.8078877,57.3036382 C24.6369328,57.3036382 24.4844332,57.1987344 24.4222687,57.039439 C24.1707013,56.396434 23.6306407,55.629075 22.4874102,55.629075"/>
    <g transform="translate(13.267 .497)">
      <polygon fill="#F47A2D" points="5.733 .503 1.733 4.003 .733 9.003 1.733 14.003 7.733 22.503 13.733 12.503 14.733 6.003 12.233 2.503"/>
      <circle cx="7.233" cy="8.003" r="2.5" fill="#FFF"/>
      <circle cx="7.33" cy="8.33" r="2.094" stroke="#000" stroke-width="2"/>
      <path stroke="#000" stroke-width="2" d="M14.6601687,8.58663729 C14.642018,4.39627241 11.3787343,1 7.33008434,1 C3.28143442,1 0,4.39627241 0,8.58663729 C0,14.0095035 7.31786753,22.6412014 7.31786753,22.6412014 C7.31786753,22.6412014 14.6842532,14.0095035 14.6601687,8.58663729 Z"/>
    </g>
  </g>
</svg>
