<svg xmlns="http://www.w3.org/2000/svg" width="59" height="50" viewBox="0 0 59 50">
  <g fill="none" fill-rule="evenodd" transform="translate(.03 1)">
    <g transform="translate(.607 .232)">
      <rect width="55.497" height="36.096" x="1.363" y="10.768" fill="#FFF"/>
      <path fill="#CDCDCD" d="M0.392578125,3.42822266 L10.3925781,3.42822266 L10.8925781,7.26757812 L16.3925781,7.26757812 L16.8925781,3.26757812 L41.4994194,3.36765292 L41.8925781,7.26757812 C44.8998898,7.7071481 46.7332232,7.7071481 47.3925781,7.26757812 C48.0519331,6.82800815 48.2185998,5.49467481 47.8925781,3.26757812 L56.3925781,3.42822266 L56.3925781,10.7675781 L0.392578125,10.7675781 L0.392578125,3.42822266 Z"/>
      <path stroke="#000" stroke-width="2" d="M41.6660618,3.61476105 L16.3627345,3.61476105"/>
      <polyline stroke="#000" stroke-width="2" points="10.941 3.615 1 3.615 1 46.992 57.029 46.992 57.029 3.615 47.088 3.615"/>
      <rect width="5.422" height="7.23" x="10.941" stroke="#000" stroke-width="2"/>
      <rect width="5.422" height="7.23" x="41.666" stroke="#000" stroke-width="2"/>
      <path stroke="#000" stroke-width="2" d="M1,10.8442832 L57.0287963,10.8442832"/>
    </g>
    <g transform="translate(18.414 16.763)">
      <rect width="19" height="12" x=".586" y="12.237" fill="#E67024"/>
      <circle cx="10.086" cy="17.737" r="1.5" fill="#FFF"/>
      <rect width="18.648" height="11.655" x="1" y="12.432" stroke="#000" stroke-width="2"/>
      <path stroke="#000" stroke-width="2" d="M4.10797152,12.4318861 L4.10797152,6.21594305 C4.10797152,2.7828 6.89077153,0 10.3239146,0 C13.7570576,0 16.5398576,2.7828 16.5398576,6.21594305 L16.5398576,7.38143237"/>
      <circle cx="10.324" cy="17.871" r="1.554" stroke="#000" stroke-width="2"/>
      <path stroke="#000" stroke-width="2" d="M10.3239146,19.424822 L10.3239146,20.9788078"/>
    </g>
  </g>
</svg>
