<svg xmlns="http://www.w3.org/2000/svg" width="72" height="75" viewBox="0 0 72 75">
  <g fill="none" fill-rule="evenodd" transform="translate(-.274 .654)">
    <path fill="#FFF" d="M54.397168,16.6875 L47.897168,18.1875 L42.897168,23.6875 L40.397168,27.1875 L36.397168,25.1875 L33.397168,26.1875 L31.897168,27.6875 L29.397168,21.6875 L22.397168,16.6875 L14.897168,17.1875 L9.39716797,19.1875 L4.39716797,25.1875 L2.39716797,34.1875 L1.39716797,39.1875 L3.89716797,42.1875 L5.39716797,41.1875 L9.89716797,27.1875 L10.397168,72.1875 L25.897168,72.1875 L26.397168,58.6875 L28.897168,59.1875 L28.897168,50.6875 L29.897168,41.6875 L35.897168,37.6875 L42.897168,39.6875 L43.397168,43.1875 L44.397168,52.1875 L47.397168,51.6875 L46.897168,72.1875 L62.897168,72.1875 L63.397168,52.1875 L68.897168,52.1875 L66.897168,41.6875 C69.897168,42.3541667 71.2305013,41.1875 70.897168,38.1875 C70.5638346,35.1875 69.397168,30.5208333 67.397168,24.1875 L62.397168,18.1875 L54.397168,16.6875 Z"/>
    <circle cx="36.274" cy="30.346" r="5" fill="#F47A2D"/>
    <polygon fill="#F47A2D" points="33.274 72.846 38.796 72.846 41.274 58.346 44.274 58.346 44.774 44.346 40.274 38.846 35.774 37.846 31.774 39.346 28.274 41.846 28.774 58.846 31.274 58.846"/>
    <path fill="#000" stroke="#000" stroke-width=".4" d="M17.8313171 15.2786062C20.8196208 15.2786062 23.5107851 13.4787124 24.6559237 10.7182845 25.7981824 7.96073644 25.1664732 4.78494844 23.0550335 2.67100548 20.9407213.559573137 17.7649333-.0720695937 15.0077545 1.07299515 12.2473266 2.21525391 10.4474328 4.90641819 10.4474328 7.89472187 10.4474328 9.85322785 11.2262422 11.7310247 12.6107759 13.1155584 13.9953096 14.5000921 15.8731065 15.2789016 17.8316125 15.2789016L17.8313171 15.2786062zM17.8313171 1.98708275C20.222536 1.98708275 22.3771658 3.42640706 23.2915488 5.63302147 24.2030519 7.83963589 23.6982546 10.3808275 22.0108367 12.0711401 20.3205241 13.7614526 17.7793325 14.2662352 15.5727181 13.3518522 13.3632238 12.4374692 11.9238995 10.2828394 11.9238995 7.89450035 11.9238995 6.32536216 12.5440525 4.81965408 13.6516499 3.71202713 14.7592768 2.60152035 16.2649849 1.97844326 17.8312433 1.97844326L17.8313171 1.98708275zM3.76711311 42.8659015C5.18915843 42.8659015 6.4294791 41.8967279 6.77845543 40.5179539L9.04562012 31.5904806 9.04562012 47.5757528 9.04562012 47.633438 9.04562012 47.6911306 9.04562012 72.6009231C9.04562012 72.7970691 9.12350106 72.9845534 9.26195443 73.1230064 9.4004078 73.2614598 9.58789951 73.3393407 9.78403809 73.3393407L25.8881956 73.3393407C26.0843341 73.3393407 26.2718259 73.2614598 26.4102792 73.1230064 26.5487326 72.9845534 26.6266135 72.7970617 26.6266135 72.6009231L26.6266135 47.6940843 26.6266135 47.6363991 26.6266135 47.5787065 26.6266135 26.0205939C26.6266135 25.6138881 26.2977886 25.2821759 25.8881956 25.2821759 25.4814897 25.2821759 25.1497776 25.6138881 25.1497776 26.0205939L25.1497776 47.5757528 25.1497776 47.6334454 25.1497776 47.6911306 25.1497776 71.8625059 18.5703258 71.8625059 18.5703258 46.8367811C18.5703258 46.4300752 18.2415009 46.0983631 17.8319078 46.0983631 17.425202 46.0983631 17.0934899 46.4300752 17.0934899 46.8367811L17.0934899 71.8625059 10.5227514 71.8625059 10.5227514 47.6940843 10.5227514 47.6363991 10.5227514 47.5787065 10.5227514 26.0205939C10.5285185 25.9744428 10.5285185 25.9282917 10.5227514 25.8821405 10.6237079 25.4869688 10.3842981 25.0831723 9.98624646 24.9851104 9.5910747 24.8841539 9.19015805 25.1235638 9.08921631 25.5187355L5.39712647 40.182978 5.39712647 40.1858652C5.16060381 41.0223451 4.3067785 41.5242477 3.4587793 41.3281239 2.61078011 41.1290981 2.06848595 40.3012799 2.2242183 39.4474472L4.83755333 27.7051247C5.74329681 23.7505272 8.39694947 20.4218867 12.0515277 18.6654119 15.7089857 16.9059096 19.9666299 16.9059096 23.6210604 18.6654119 27.2756386 20.4220344 29.932245 23.7506749 30.8379146 27.7051247 30.8552231 27.75993 30.8811785 27.8118482 30.9100285 27.8608866 30.1139401 29.6694198 30.2869883 31.7577397 31.3657727 33.4105406 32.4474073 35.0662214 34.2876926 36.0642671 36.2635514 36.0642671 38.2394102 36.0642671 40.0825753 35.0662214 41.1613301 33.4105406 42.2400849 31.7577397 42.4131701 29.6694198 41.6170743 27.8608866 41.6488041 27.8118482 41.6718796 27.75993 41.692068 27.7051247 42.5949316 23.7505272 45.2514641 20.4218867 48.9060423 18.6654119 52.5635004 16.9059096 56.8211445 16.9059096 60.4755751 18.6654119 64.1301533 20.4220344 66.7867596 23.7506749 67.6924293 27.7051247L70.1499581 38.6861383C70.2999456 39.3437881 70.1441837 40.0331603 69.7230639 40.5610553 69.3048166 41.0860262 68.6673477 41.3946554 67.9923599 41.3946554L66.9020119 41.3946554C66.8472065 41.3888883 66.7924011 41.3888883 66.7375957 41.3946554L63.4522265 25.8443114C63.3685785 25.4376055 62.9705269 25.1722329 62.5638359 25.2558809 62.1542428 25.3395289 61.8917574 25.7404677 61.9754127 26.1471514L67.2770322 51.2533623 45.1185858 51.2533623 45.1185858 45.6489176C45.1214656 44.4259498 44.8705217 43.2173072 44.3801678 42.098161L47.3338397 26.164578 47.3338397 26.1616908C47.4088335 25.754985 47.1377011 25.3627226 46.7309879 25.2876993 46.3242821 25.2127056 45.9320197 25.4809581 45.8569964 25.8876639L43.2206227 40.185651C40.8870743 37.2204598 36.9296708 36.0580423 33.3642197 37.2896496 29.7961841 38.5213308 27.4020853 41.8758898 27.3963257 45.648541L27.3963257 58.5708555C27.3963257 58.7670014 27.4742066 58.9544857 27.61266 59.0929391 27.7511133 59.2313925 27.938605 59.3092734 28.1347436 59.3092734L31.1634388 59.3092734 32.5739648 72.6761177 32.5710776 72.6761177C32.6085744 73.053981 32.9287525 73.3424219 33.3094955 73.3395421L39.2168393 73.3395421C39.5975823 73.3424271 39.9177604 73.053981 39.9552572 72.6761177L41.3513103 59.3092734 44.3800054 59.3092734C44.5732641 59.3092734 44.7636357 59.2313925 44.9020891 59.0929391 45.0405424 58.9544857 45.1184234 58.766994 45.1184234 58.5708555L45.1184234 52.7442946 45.8568413 52.7442946 45.8568413 72.6010952C45.8568413 72.7972412 45.9347223 72.9847255 46.0731756 73.1231792 46.211629 73.2616326 46.3991207 73.3395135 46.5952593 73.3395135L62.765136 73.3395135C62.9612746 73.3395135 63.1487663 73.2616326 63.2872196 73.1231792 63.425673 72.9847255 63.503554 72.7972338 63.503554 72.6010952L63.503554 52.7442946 68.2599995 52.7442946C68.484988 52.7500691 68.7013223 52.6519924 68.8455428 52.4760422 68.9897632 52.3029718 69.0445685 52.0722161 68.9984174 51.8501148L67.0485509 42.8650449 68.0234842 42.8650449C69.1455103 42.8650449 70.2098659 42.3544954 70.9108461 41.4776314 71.6117672 40.5978802 71.87426 39.4498618 71.6261885 38.3537542L69.1167489 27.3727406C68.1475753 23.1095583 65.3438761 19.492344 61.4556625 17.4904929 57.5674488 15.4915955 52.9956078 15.3098708 48.9631073 16.9972519 44.9306806 18.6846846 41.8500747 22.0681157 40.5466193 26.2422448 39.444752 25.036556 37.8871331 24.3500488 36.251685 24.3500488 34.6191167 24.3500488 33.0614979 25.0365486 31.9596306 26.2422448 30.653 22.0742446 27.572394 18.6933979 23.5431425 17.0090665 19.5107159 15.3245875 14.94205 15.5062383 11.0594484 17.5023076 7.17411454 19.501205 4.37041757 23.1125858 3.3983649 27.3727406L.738878742 39.0692812C.531198688 39.9894238.750416522 40.9557176 1.34173056 41.6941356 1.93016107 42.4325535 2.82144632 42.8623128 3.76758127 42.8651926L3.76711311 42.8659015zM43.6416834 57.8277264L40.6880115 57.8277264 40.6880115 57.8248392C40.3072685 57.8248392 39.9870904 58.1104002 39.9495936 58.4911432L38.5449011 71.863155 33.9673004 71.863155 32.5567744 58.4963122C32.5192775 58.1184489 32.1990995 57.8300081 31.8183564 57.8328879L28.8646846 57.8328879 28.8646846 45.6489914C28.8646846 41.5704136 32.1702864 38.2648118 36.2488642 38.2648118 40.3274421 38.2648118 43.6330439 41.5704136 43.6330439 45.6489914L43.6416834 57.8277264zM47.3337733 71.8576663L47.3337733 52.7451955 53.7516592 52.7451955 53.748772 71.8635744 47.362638 71.8635744 47.3337733 71.8576663zM61.9610948 71.8576663L55.2547828 71.8547821 55.2547828 52.745262 62.0274786 52.745262 61.9610948 71.8576663zM36.2575037 25.8453673C38.0256456 25.8453673 39.6178962 26.909723 40.2957639 28.5451711 40.9707223 30.1777394 40.5986334 32.0584161 39.3467491 33.3073763 38.097789 34.5592162 36.2171123 34.9313051 34.584544 34.256391 32.9490959 33.5785455 31.8847402 31.9834667 31.8847402 30.2181309 31.8847402 27.8038733 33.8432462 25.8452935 36.2575776 25.8452935L36.2575037 25.8453673zM54.6429297 15.2786062C57.6283535 15.2786062 60.3223977 13.4787124 61.4646564 10.7182845 62.6069152 7.96073644 61.975206 4.78494844 59.8637663 2.67100548 57.7523339.559573137 54.5765459-.0720695937 51.8164872 1.07299515 49.0589392 2.21525391 47.2590454 4.90641819 47.2590454 7.89472187 47.2590454 9.85322785 48.0378548 11.7310247 49.4223885 13.1155584 50.8069222 14.5000921 52.6847191 15.2789016 54.6432251 15.2789016L54.6429297 15.2786062zM54.6429297 1.98708275C57.0312688 1.98708275 59.1858986 3.42640706 60.1002815 5.63302147 61.0146645 7.83963589 60.5098746 10.3808275 58.8195694 12.0711401 57.1292568 13.7614526 54.5909451 14.2662352 52.3814508 13.3518522 50.1748364 12.4374692 48.7355121 10.2828394 48.7355121 7.89450035 48.7326249 6.32536216 49.355665 4.81965408 50.4632625 3.71202713 51.5708894 2.60152035 53.0737177 1.97844326 54.6428558 1.97844326L54.6429297 1.98708275z"/>
  </g>
</svg>
