<svg xmlns="http://www.w3.org/2000/svg" width="74" height="63" viewBox="0 0 74 63">
  <g fill="none" fill-rule="evenodd" transform="translate(-3 1)">
    <polygon fill="#FFF" points="30.5 .5 27.5 1 28 27.5 37.649 17 46.838 24.5 58 12 72 25 71.704 3.5 70.623 1 61 .5"/>
    <circle cx="45" cy="9" r="3" fill="#E67024"/>
    <polygon fill="#E46F25" points="68.5 22 58 12 45.5 24 37.5 18 28 26 28 30.5 32 31 39.5 30.5 40 38.5 40.5 39 50.5 30.5 65.5 31.5 72 30.5 72 25.5"/>
    <circle cx="45" cy="9" r="3" stroke="#000" stroke-width="2"/>
    <path fill="#000" stroke="#000" stroke-width=".653" d="M21.3968135,15.5736773 L9.1838843,17.1901493 C8.84761273,17.235161 8.59474222,17.5224487 8.59474222,17.8613774 L8.59474222,30.5338801 C8.59474222,31.4539761 6.98223565,32.1424213 5.54051012,32.1424213 C4.96726333,32.1424213 4.46945979,32.0351841 4.13718407,31.8405737 C3.76783066,31.6234557 3.7214666,31.3705954 3.7214666,31.1733109 C3.7214666,30.7708451 3.8459141,30.4663607 4.1133242,30.2148154 C4.86263918,29.5131524 6.50429274,29.4562141 7.06960885,29.4946135 C7.44428328,29.5197681 7.76730653,29.2377777 7.79245428,28.8657502 C7.81760882,28.4923976 7.53694022,28.1680525 7.16359096,28.1429048 C6.8961639,28.1243693 4.50386002,27.9972749 3.19044905,29.2232076 C2.6502807,29.7262982 2.36565692,30.4014917 2.36565692,31.1733109 C2.36565692,31.9464518 2.75090561,32.5978194 3.45124686,33.0095715 C3.99538056,33.3286328 4.71822599,33.4967669 5.54037456,33.4967669 C7.70758908,33.4967669 9.95038244,32.3886727 9.95038244,30.5325515 L9.95170762,22.5388191 L20.8089627,21.1010589 L20.8089627,28.9199094 C20.8089627,29.8400054 19.1964561,30.5271288 17.7560523,30.5271288 C17.1828055,30.5271288 16.685002,30.4198916 16.3527263,30.2252812 C15.9833729,30.009485 15.9370088,29.7553029 15.9370088,29.5580184 C15.9370088,29.1555527 16.0614563,28.8510683 16.3288664,28.6008447 C17.0781814,27.8991817 18.7171914,27.8435651 19.2851511,27.8806428 C19.6598255,27.9124164 19.981527,27.623807 20.0066747,27.2517795 C20.0318293,26.8784269 19.7498389,26.5540818 19.3778114,26.5289341 C19.1103843,26.5090734 16.7194022,26.3833042 15.4060252,27.6092369 C14.8658568,28.1123275 14.581233,28.787521 14.581233,29.5593402 C14.581233,30.3324811 14.9664817,30.9851704 15.666823,31.3956008 C16.2109567,31.7146621 16.9338021,31.8827962 17.7559507,31.8827962 C19.9231652,31.8827962 22.1646029,30.774702 22.1646029,28.9199026 L22.1632777,16.2460443 C22.1646029,16.0514305 22.081195,15.8660827 21.9329182,15.7363447 C21.7860309,15.6067761 21.5927423,15.5485228 21.3968135,15.5736773 Z M9.95153477,21.1710761 L9.95153477,18.4570843 L20.8087898,17.0206459 L20.8087898,19.7333159 L9.95153477,21.1710761 Z" transform="rotate(-10 12.265 24.532)"/>
    <g transform="translate(8 34)">
      <circle cx="12.936" cy="14.042" r="12.5" fill="#FFF"/>
      <path fill="#000" d="M13.3257813,0.880078125 C6.08469645,0.880078125 0.194042969,6.77073161 0.194042969,14.0118164 C0.194042969,21.2529012 6.08469645,27.1435547 13.3257813,27.1435547 C20.566866,27.1435547 26.4575195,21.2529012 26.4575195,14.0118164 C26.4575195,6.77073161 20.566866,0.880078125 13.3257813,0.880078125 Z M13.3257813,2.92432393 C19.4595619,2.92432393 24.4132737,7.87803577 24.4132737,14.0118164 C24.4132737,20.145597 19.4595619,25.0993089 13.3257813,25.0993089 C7.19200061,25.0993089 2.23828877,20.145597 2.23828877,14.0118164 C2.23828877,7.87803577 7.19200061,2.92432393 13.3257813,2.92432393 Z"/>
      <path fill="#E67024" stroke="#000" stroke-width="1.9" d="M9.73992957,8.6071884 C9.18624052,8.93577968 8.80738168,9.56183445 8.79130327,10.2713169 L8.79130327,17.7237251 C8.80738168,18.4331818 9.18624052,19.0572299 9.73992957,19.3878535 C10.2936186,19.7184771 11.0332256,19.7526406 11.6613126,19.4119712 C13.8118066,18.1749367 15.9613231,16.9208206 18.1086271,15.6738047 C18.6814302,15.3411746 19.0813582,14.7101033 19.0813582,13.9936236 C19.0813582,13.2771438 18.6814045,12.6460469 18.1086271,12.3134424 C15.9450646,11.0985061 13.8327986,9.77806979 11.6613126,8.58325086 C11.3266759,8.42246674 10.9799996,8.33905965 10.6724775,8.34207468 C10.3398473,8.3489408 10.0172757,8.44239625 9.73992957,8.6071884 Z"/>
    </g>
    <g transform="translate(45.436 41.542)">
      <rect width="30" height="18" fill="#FFF"/>
      <rect width="29.332" height="18.051" x=".564" stroke="#000" stroke-width="2"/>
      <polyline stroke="#000" stroke-width="2" points=".5 0 15.23 8.496 29.896 0"/>
    </g>
    <polygon stroke="#000" stroke-width="2" points="49.938 30.734 72.292 30.734 72.292 .448 27.584 .448 27.584 30.734 39.843 30.734 39.843 39.387"/>
    <polyline stroke="#000" stroke-width="2" points="72.5 25.5 58 12 45.5 24 37.5 18 28 26"/>
  </g>
</svg>
