<svg xmlns="http://www.w3.org/2000/svg" width="65" height="56" viewBox="0 0 65 56">
  <g fill="none" fill-rule="evenodd" transform="translate(1.184 .113)">
    <rect width="62.235" height="9.01" x="1.119" y="14" fill="#D8D8D8"/>
    <g transform="translate(.695 .207)">
      <rect width="52" height="31" x="5.121" y="22.68" fill="#FFF"/>
      <rect width="62" height="9" y="14" stroke="#000" stroke-width="2"/>
      <rect width="52" height="31" x="5" y="23" stroke="#000" stroke-width="2"/>
      <path stroke="#000" stroke-width="2" d="M31 54L31 14M31 14C31 14 18 14.101 18 5 18-2 31 .932 31 7 31 13.067 31 14 31 14zM31 14C31 14 44 14.101 44 5 44-2 31 .932 31 7 31 13.067 31 14 31 14z"/>
    </g>
    <g transform="translate(16.977 19.678)">
      <ellipse cx="14.465" cy="14.891" fill="#E67024" rx="14.201" ry="14.344"/>
      <path stroke="#000" stroke-width="2" d="M24.8689964,4.21263552 C30.4853799,9.82809119 30.4853799,18.9329692 24.8689964,24.5488888 C19.2530769,30.1657362 10.1477349,30.1657362 4.53181538,24.5488888 C-1.08456809,18.9334331 -1.08456809,9.82855509 4.53181538,4.21263552 C10.1477349,-1.40421184 19.252613,-1.40421184 24.8689964,4.21263552 Z"/>
      <polyline stroke="#000" stroke-width="2" points="14.7 6.103 14.7 14.381 18.875 18.556"/>
      <path stroke="#000" stroke-width="2" d="M1.71133041 14.3807622L4.58557195 14.3807622M24.8146647 14.3807622L27.6889062 14.3807622M14.7004059 27.3698377L14.7004059 24.4277631M14.7004059 4.16343907L14.7004059 1.39168666"/>
    </g>
  </g>
</svg>
